<mxfile host="app.diagrams.net" modified="2023-06-05T20:01:03.828Z" agent="Mozilla/5.0 (Windows NT 10.0; Win64; x64) AppleWebKit/537.36 (KHTML, like Gecko) Chrome/112.0.0.0 YaBrowser/23.5.1.714 Yowser/2.5 Safari/537.36" etag="imYttHsnIL4NFcEO5QJW" version="21.3.5" type="device">
  <diagram id="R2lEEEUBdFMjLlhIrx00" name="Page-1">
    <mxGraphModel dx="4734" dy="767" grid="1" gridSize="10" guides="1" tooltips="1" connect="1" arrows="1" fold="1" page="1" pageScale="1" pageWidth="3300" pageHeight="4681" math="0" shadow="0" extFonts="Permanent Marker^https://fonts.googleapis.com/css?family=Permanent+Marker">
      <root>
        <mxCell id="0" />
        <mxCell id="1" parent="0" />
        <mxCell id="kJskTAHnGRdRSJ4M2GRQ-1" value="Производитель" style="rounded=0;whiteSpace=wrap;html=1;" parent="1" vertex="1">
          <mxGeometry x="260" y="220" width="120" height="60" as="geometry" />
        </mxCell>
        <mxCell id="kJskTAHnGRdRSJ4M2GRQ-2" value="Товар" style="rounded=0;whiteSpace=wrap;html=1;" parent="1" vertex="1">
          <mxGeometry x="520" y="190" width="120" height="60" as="geometry" />
        </mxCell>
        <mxCell id="kJskTAHnGRdRSJ4M2GRQ-3" value="Поставщик" style="rounded=0;whiteSpace=wrap;html=1;" parent="1" vertex="1">
          <mxGeometry x="1110" y="110" width="120" height="60" as="geometry" />
        </mxCell>
        <mxCell id="kJskTAHnGRdRSJ4M2GRQ-4" value="Покупатель" style="rounded=0;whiteSpace=wrap;html=1;" parent="1" vertex="1">
          <mxGeometry x="870" y="745" width="120" height="60" as="geometry" />
        </mxCell>
        <mxCell id="kJskTAHnGRdRSJ4M2GRQ-5" value="База" style="rounded=0;whiteSpace=wrap;html=1;" parent="1" vertex="1">
          <mxGeometry x="1070" y="285" width="120" height="60" as="geometry" />
        </mxCell>
        <mxCell id="kJskTAHnGRdRSJ4M2GRQ-7" value="Заказ" style="rounded=0;whiteSpace=wrap;html=1;" parent="1" vertex="1">
          <mxGeometry x="610" y="735" width="120" height="60" as="geometry" />
        </mxCell>
        <mxCell id="kJskTAHnGRdRSJ4M2GRQ-9" value="Поставка" style="rounded=0;whiteSpace=wrap;html=1;" parent="1" vertex="1">
          <mxGeometry x="580" y="385" width="120" height="60" as="geometry" />
        </mxCell>
        <mxCell id="kJskTAHnGRdRSJ4M2GRQ-10" value="Менеджер" style="rounded=0;whiteSpace=wrap;html=1;" parent="1" vertex="1">
          <mxGeometry x="780" y="495" width="120" height="60" as="geometry" />
        </mxCell>
        <mxCell id="kJskTAHnGRdRSJ4M2GRQ-11" value="Название" style="ellipse;whiteSpace=wrap;html=1;" parent="1" vertex="1">
          <mxGeometry x="180" y="50" width="120" height="60" as="geometry" />
        </mxCell>
        <mxCell id="kJskTAHnGRdRSJ4M2GRQ-12" value="&lt;u&gt;Код производителя&lt;/u&gt;" style="ellipse;whiteSpace=wrap;html=1;" parent="1" vertex="1">
          <mxGeometry x="60" y="140" width="120" height="70" as="geometry" />
        </mxCell>
        <mxCell id="kJskTAHnGRdRSJ4M2GRQ-13" value="Адрес" style="ellipse;whiteSpace=wrap;html=1;" parent="1" vertex="1">
          <mxGeometry x="80" y="290" width="100" height="60" as="geometry" />
        </mxCell>
        <mxCell id="kJskTAHnGRdRSJ4M2GRQ-14" value="Номер счета" style="ellipse;whiteSpace=wrap;html=1;" parent="1" vertex="1">
          <mxGeometry x="210" y="350" width="100" height="60" as="geometry" />
        </mxCell>
        <mxCell id="kJskTAHnGRdRSJ4M2GRQ-15" value="" style="endArrow=none;html=1;rounded=0;entryX=0.5;entryY=1;entryDx=0;entryDy=0;exitX=0.5;exitY=0;exitDx=0;exitDy=0;" parent="1" source="kJskTAHnGRdRSJ4M2GRQ-1" target="kJskTAHnGRdRSJ4M2GRQ-11" edge="1">
          <mxGeometry width="50" height="50" relative="1" as="geometry">
            <mxPoint x="280" y="220" as="sourcePoint" />
            <mxPoint x="330" y="170" as="targetPoint" />
          </mxGeometry>
        </mxCell>
        <mxCell id="kJskTAHnGRdRSJ4M2GRQ-17" value="" style="endArrow=none;html=1;rounded=0;exitX=0;exitY=0.5;exitDx=0;exitDy=0;" parent="1" source="kJskTAHnGRdRSJ4M2GRQ-1" target="kJskTAHnGRdRSJ4M2GRQ-12" edge="1">
          <mxGeometry width="50" height="50" relative="1" as="geometry">
            <mxPoint x="160" y="280" as="sourcePoint" />
            <mxPoint x="210" y="230" as="targetPoint" />
          </mxGeometry>
        </mxCell>
        <mxCell id="kJskTAHnGRdRSJ4M2GRQ-19" value="" style="endArrow=none;html=1;rounded=0;exitX=1;exitY=0.5;exitDx=0;exitDy=0;entryX=0;entryY=1;entryDx=0;entryDy=0;" parent="1" source="kJskTAHnGRdRSJ4M2GRQ-13" target="kJskTAHnGRdRSJ4M2GRQ-1" edge="1">
          <mxGeometry width="50" height="50" relative="1" as="geometry">
            <mxPoint x="740" y="300" as="sourcePoint" />
            <mxPoint x="790" y="250" as="targetPoint" />
          </mxGeometry>
        </mxCell>
        <mxCell id="kJskTAHnGRdRSJ4M2GRQ-20" value="" style="endArrow=none;html=1;rounded=0;exitX=0.5;exitY=0;exitDx=0;exitDy=0;entryX=0.5;entryY=1;entryDx=0;entryDy=0;" parent="1" source="kJskTAHnGRdRSJ4M2GRQ-14" target="kJskTAHnGRdRSJ4M2GRQ-1" edge="1">
          <mxGeometry width="50" height="50" relative="1" as="geometry">
            <mxPoint x="310" y="360" as="sourcePoint" />
            <mxPoint x="360" y="310" as="targetPoint" />
          </mxGeometry>
        </mxCell>
        <mxCell id="kJskTAHnGRdRSJ4M2GRQ-21" value="" style="endArrow=none;html=1;rounded=0;exitX=1;exitY=0.5;exitDx=0;exitDy=0;entryX=0;entryY=0.5;entryDx=0;entryDy=0;" parent="1" source="kJskTAHnGRdRSJ4M2GRQ-1" target="kJskTAHnGRdRSJ4M2GRQ-2" edge="1">
          <mxGeometry width="50" height="50" relative="1" as="geometry">
            <mxPoint x="430" y="260" as="sourcePoint" />
            <mxPoint x="480" y="210" as="targetPoint" />
          </mxGeometry>
        </mxCell>
        <mxCell id="kJskTAHnGRdRSJ4M2GRQ-22" value="" style="endArrow=none;html=1;rounded=0;entryX=0.5;entryY=1;entryDx=0;entryDy=0;exitX=0.75;exitY=0;exitDx=0;exitDy=0;" parent="1" source="INEstCtHJYuw2tECv8UU-12" target="kJskTAHnGRdRSJ4M2GRQ-2" edge="1">
          <mxGeometry width="50" height="50" relative="1" as="geometry">
            <mxPoint x="560" y="410" as="sourcePoint" />
            <mxPoint x="610" y="360" as="targetPoint" />
          </mxGeometry>
        </mxCell>
        <mxCell id="kJskTAHnGRdRSJ4M2GRQ-23" value="" style="endArrow=none;html=1;rounded=0;exitX=1;exitY=0.25;exitDx=0;exitDy=0;entryX=0;entryY=1;entryDx=0;entryDy=0;" parent="1" source="kJskTAHnGRdRSJ4M2GRQ-9" target="kJskTAHnGRdRSJ4M2GRQ-3" edge="1">
          <mxGeometry width="50" height="50" relative="1" as="geometry">
            <mxPoint x="870" y="490" as="sourcePoint" />
            <mxPoint x="860.0000000000005" y="340.0000000000002" as="targetPoint" />
          </mxGeometry>
        </mxCell>
        <mxCell id="kJskTAHnGRdRSJ4M2GRQ-24" value="&lt;u&gt;Код товара&lt;/u&gt;" style="ellipse;whiteSpace=wrap;html=1;" parent="1" vertex="1">
          <mxGeometry x="370" y="90" width="100" height="50" as="geometry" />
        </mxCell>
        <mxCell id="kJskTAHnGRdRSJ4M2GRQ-25" value="Название" style="ellipse;whiteSpace=wrap;html=1;" parent="1" vertex="1">
          <mxGeometry x="440" y="40" width="90" height="50" as="geometry" />
        </mxCell>
        <mxCell id="kJskTAHnGRdRSJ4M2GRQ-26" value="Единица измерения" style="ellipse;whiteSpace=wrap;html=1;" parent="1" vertex="1">
          <mxGeometry x="530" y="10" width="120" height="50" as="geometry" />
        </mxCell>
        <mxCell id="kJskTAHnGRdRSJ4M2GRQ-27" value="Код производителя" style="ellipse;whiteSpace=wrap;html=1;" parent="1" vertex="1">
          <mxGeometry x="640" y="50" width="130" height="60" as="geometry" />
        </mxCell>
        <mxCell id="kJskTAHnGRdRSJ4M2GRQ-28" value="" style="endArrow=none;html=1;rounded=0;entryX=0.5;entryY=1;entryDx=0;entryDy=0;exitX=0;exitY=0;exitDx=0;exitDy=0;" parent="1" source="kJskTAHnGRdRSJ4M2GRQ-2" target="kJskTAHnGRdRSJ4M2GRQ-24" edge="1">
          <mxGeometry width="50" height="50" relative="1" as="geometry">
            <mxPoint x="430" y="220" as="sourcePoint" />
            <mxPoint x="480" y="170" as="targetPoint" />
          </mxGeometry>
        </mxCell>
        <mxCell id="kJskTAHnGRdRSJ4M2GRQ-29" value="" style="endArrow=none;html=1;rounded=0;entryX=0.5;entryY=1;entryDx=0;entryDy=0;exitX=0.25;exitY=0;exitDx=0;exitDy=0;" parent="1" source="kJskTAHnGRdRSJ4M2GRQ-2" target="kJskTAHnGRdRSJ4M2GRQ-25" edge="1">
          <mxGeometry width="50" height="50" relative="1" as="geometry">
            <mxPoint x="520" y="160" as="sourcePoint" />
            <mxPoint x="570" y="110" as="targetPoint" />
          </mxGeometry>
        </mxCell>
        <mxCell id="kJskTAHnGRdRSJ4M2GRQ-30" value="" style="endArrow=none;html=1;rounded=0;entryX=0.5;entryY=1;entryDx=0;entryDy=0;exitX=0.5;exitY=0;exitDx=0;exitDy=0;" parent="1" source="kJskTAHnGRdRSJ4M2GRQ-2" target="kJskTAHnGRdRSJ4M2GRQ-26" edge="1">
          <mxGeometry width="50" height="50" relative="1" as="geometry">
            <mxPoint x="580" y="150" as="sourcePoint" />
            <mxPoint x="630" y="100" as="targetPoint" />
          </mxGeometry>
        </mxCell>
        <mxCell id="kJskTAHnGRdRSJ4M2GRQ-31" value="" style="endArrow=none;html=1;rounded=0;entryX=0.5;entryY=1;entryDx=0;entryDy=0;exitX=1;exitY=0;exitDx=0;exitDy=0;" parent="1" source="kJskTAHnGRdRSJ4M2GRQ-2" target="kJskTAHnGRdRSJ4M2GRQ-27" edge="1">
          <mxGeometry width="50" height="50" relative="1" as="geometry">
            <mxPoint x="670" y="180" as="sourcePoint" />
            <mxPoint x="720" y="130" as="targetPoint" />
          </mxGeometry>
        </mxCell>
        <mxCell id="kJskTAHnGRdRSJ4M2GRQ-32" value="Цена товара" style="ellipse;whiteSpace=wrap;html=1;" parent="1" vertex="1">
          <mxGeometry x="-10" y="515" width="110" height="50" as="geometry" />
        </mxCell>
        <mxCell id="kJskTAHnGRdRSJ4M2GRQ-33" value="Количество товара" style="ellipse;whiteSpace=wrap;html=1;" parent="1" vertex="1">
          <mxGeometry x="20" y="580" width="130" height="60" as="geometry" />
        </mxCell>
        <mxCell id="kJskTAHnGRdRSJ4M2GRQ-35" value="Код товара" style="ellipse;whiteSpace=wrap;html=1;" parent="1" vertex="1">
          <mxGeometry y="452.5" width="100" height="50" as="geometry" />
        </mxCell>
        <mxCell id="kJskTAHnGRdRSJ4M2GRQ-37" value="Номер договора поставки" style="ellipse;whiteSpace=wrap;html=1;" parent="1" vertex="1">
          <mxGeometry x="550" y="295" width="110" height="50" as="geometry" />
        </mxCell>
        <mxCell id="kJskTAHnGRdRSJ4M2GRQ-38" value="" style="endArrow=none;html=1;rounded=0;entryX=1;entryY=0.5;entryDx=0;entryDy=0;exitX=0;exitY=0.5;exitDx=0;exitDy=0;" parent="1" source="INEstCtHJYuw2tECv8UU-12" target="kJskTAHnGRdRSJ4M2GRQ-35" edge="1">
          <mxGeometry width="50" height="50" relative="1" as="geometry">
            <mxPoint x="190" y="445" as="sourcePoint" />
            <mxPoint x="240" y="395" as="targetPoint" />
          </mxGeometry>
        </mxCell>
        <mxCell id="kJskTAHnGRdRSJ4M2GRQ-39" value="" style="endArrow=none;html=1;rounded=0;entryX=1;entryY=0.5;entryDx=0;entryDy=0;exitX=0.25;exitY=1;exitDx=0;exitDy=0;" parent="1" source="INEstCtHJYuw2tECv8UU-12" target="kJskTAHnGRdRSJ4M2GRQ-32" edge="1">
          <mxGeometry width="50" height="50" relative="1" as="geometry">
            <mxPoint x="220" y="535" as="sourcePoint" />
            <mxPoint x="270" y="485" as="targetPoint" />
          </mxGeometry>
        </mxCell>
        <mxCell id="kJskTAHnGRdRSJ4M2GRQ-40" value="" style="endArrow=none;html=1;rounded=0;entryX=1;entryY=1;entryDx=0;entryDy=0;exitX=0;exitY=0;exitDx=0;exitDy=0;" parent="1" source="kJskTAHnGRdRSJ4M2GRQ-9" target="kJskTAHnGRdRSJ4M2GRQ-43" edge="1">
          <mxGeometry width="50" height="50" relative="1" as="geometry">
            <mxPoint x="490" y="425" as="sourcePoint" />
            <mxPoint x="543.6929588646985" y="316.3206099866709" as="targetPoint" />
          </mxGeometry>
        </mxCell>
        <mxCell id="kJskTAHnGRdRSJ4M2GRQ-41" value="" style="endArrow=none;html=1;rounded=0;exitX=0.5;exitY=1;exitDx=0;exitDy=0;entryX=0.75;entryY=0;entryDx=0;entryDy=0;" parent="1" source="kJskTAHnGRdRSJ4M2GRQ-37" target="kJskTAHnGRdRSJ4M2GRQ-9" edge="1">
          <mxGeometry width="50" height="50" relative="1" as="geometry">
            <mxPoint x="630" y="650" as="sourcePoint" />
            <mxPoint x="690" y="600" as="targetPoint" />
          </mxGeometry>
        </mxCell>
        <mxCell id="kJskTAHnGRdRSJ4M2GRQ-42" value="" style="endArrow=none;html=1;rounded=0;entryX=1;entryY=0.5;entryDx=0;entryDy=0;exitX=0.25;exitY=1;exitDx=0;exitDy=0;" parent="1" source="INEstCtHJYuw2tECv8UU-12" target="kJskTAHnGRdRSJ4M2GRQ-33" edge="1">
          <mxGeometry width="50" height="50" relative="1" as="geometry">
            <mxPoint x="340" y="605" as="sourcePoint" />
            <mxPoint x="390" y="555" as="targetPoint" />
          </mxGeometry>
        </mxCell>
        <mxCell id="kJskTAHnGRdRSJ4M2GRQ-43" value="&lt;u&gt;Код поставки&lt;/u&gt;" style="ellipse;whiteSpace=wrap;html=1;" parent="1" vertex="1">
          <mxGeometry x="440" y="335" width="110" height="50" as="geometry" />
        </mxCell>
        <mxCell id="kJskTAHnGRdRSJ4M2GRQ-44" value="Код поставщика" style="ellipse;whiteSpace=wrap;html=1;" parent="1" vertex="1">
          <mxGeometry x="435" y="470" width="120" height="50" as="geometry" />
        </mxCell>
        <mxCell id="kJskTAHnGRdRSJ4M2GRQ-45" value="Дата поставки" style="ellipse;whiteSpace=wrap;html=1;" parent="1" vertex="1">
          <mxGeometry x="790" y="370" width="120" height="40" as="geometry" />
        </mxCell>
        <mxCell id="kJskTAHnGRdRSJ4M2GRQ-49" value="" style="endArrow=none;html=1;rounded=0;entryX=1;entryY=0.5;entryDx=0;entryDy=0;exitX=0;exitY=1;exitDx=0;exitDy=0;" parent="1" source="kJskTAHnGRdRSJ4M2GRQ-9" target="kJskTAHnGRdRSJ4M2GRQ-44" edge="1">
          <mxGeometry width="50" height="50" relative="1" as="geometry">
            <mxPoint x="610" y="440" as="sourcePoint" />
            <mxPoint x="690" y="310" as="targetPoint" />
          </mxGeometry>
        </mxCell>
        <mxCell id="kJskTAHnGRdRSJ4M2GRQ-50" value="" style="endArrow=none;html=1;rounded=0;entryX=0;entryY=0.5;entryDx=0;entryDy=0;exitX=1;exitY=0.5;exitDx=0;exitDy=0;" parent="1" source="kJskTAHnGRdRSJ4M2GRQ-9" target="kJskTAHnGRdRSJ4M2GRQ-45" edge="1">
          <mxGeometry width="50" height="50" relative="1" as="geometry">
            <mxPoint x="980" y="250" as="sourcePoint" />
            <mxPoint x="1030" y="200" as="targetPoint" />
          </mxGeometry>
        </mxCell>
        <mxCell id="kJskTAHnGRdRSJ4M2GRQ-51" value="&lt;u&gt;Код поставщика&lt;/u&gt;" style="ellipse;whiteSpace=wrap;html=1;" parent="1" vertex="1">
          <mxGeometry x="960" y="40" width="130" height="50" as="geometry" />
        </mxCell>
        <mxCell id="kJskTAHnGRdRSJ4M2GRQ-52" value="Номер счета" style="ellipse;whiteSpace=wrap;html=1;" parent="1" vertex="1">
          <mxGeometry x="1080" y="10" width="130" height="50" as="geometry" />
        </mxCell>
        <mxCell id="kJskTAHnGRdRSJ4M2GRQ-53" value="Название" style="ellipse;whiteSpace=wrap;html=1;" parent="1" vertex="1">
          <mxGeometry x="1200" y="45" width="110" height="45" as="geometry" />
        </mxCell>
        <mxCell id="kJskTAHnGRdRSJ4M2GRQ-54" value="Адрес" style="ellipse;whiteSpace=wrap;html=1;" parent="1" vertex="1">
          <mxGeometry x="1270" y="95" width="100" height="40" as="geometry" />
        </mxCell>
        <mxCell id="kJskTAHnGRdRSJ4M2GRQ-55" value="" style="endArrow=none;html=1;rounded=0;entryX=0.5;entryY=1;entryDx=0;entryDy=0;exitX=0;exitY=0.25;exitDx=0;exitDy=0;" parent="1" source="kJskTAHnGRdRSJ4M2GRQ-3" target="kJskTAHnGRdRSJ4M2GRQ-51" edge="1">
          <mxGeometry width="50" height="50" relative="1" as="geometry">
            <mxPoint x="1010" y="210" as="sourcePoint" />
            <mxPoint x="1060" y="160" as="targetPoint" />
          </mxGeometry>
        </mxCell>
        <mxCell id="kJskTAHnGRdRSJ4M2GRQ-56" value="" style="endArrow=none;html=1;rounded=0;entryX=0.362;entryY=0.96;entryDx=0;entryDy=0;entryPerimeter=0;exitX=0.25;exitY=0;exitDx=0;exitDy=0;" parent="1" source="kJskTAHnGRdRSJ4M2GRQ-3" target="kJskTAHnGRdRSJ4M2GRQ-52" edge="1">
          <mxGeometry width="50" height="50" relative="1" as="geometry">
            <mxPoint x="1050" y="230" as="sourcePoint" />
            <mxPoint x="1100" y="180" as="targetPoint" />
          </mxGeometry>
        </mxCell>
        <mxCell id="kJskTAHnGRdRSJ4M2GRQ-57" value="" style="endArrow=none;html=1;rounded=0;entryX=0;entryY=1;entryDx=0;entryDy=0;exitX=0.75;exitY=0;exitDx=0;exitDy=0;" parent="1" source="kJskTAHnGRdRSJ4M2GRQ-3" target="kJskTAHnGRdRSJ4M2GRQ-53" edge="1">
          <mxGeometry width="50" height="50" relative="1" as="geometry">
            <mxPoint x="1100" y="250" as="sourcePoint" />
            <mxPoint x="1150" y="200" as="targetPoint" />
          </mxGeometry>
        </mxCell>
        <mxCell id="kJskTAHnGRdRSJ4M2GRQ-58" value="" style="endArrow=none;html=1;rounded=0;entryX=0;entryY=0.5;entryDx=0;entryDy=0;exitX=1;exitY=0.5;exitDx=0;exitDy=0;" parent="1" source="kJskTAHnGRdRSJ4M2GRQ-3" target="kJskTAHnGRdRSJ4M2GRQ-54" edge="1">
          <mxGeometry width="50" height="50" relative="1" as="geometry">
            <mxPoint x="1150" y="280" as="sourcePoint" />
            <mxPoint x="1200" y="230" as="targetPoint" />
          </mxGeometry>
        </mxCell>
        <mxCell id="kJskTAHnGRdRSJ4M2GRQ-60" value="&lt;u&gt;Код Базы&lt;/u&gt;" style="ellipse;whiteSpace=wrap;html=1;" parent="1" vertex="1">
          <mxGeometry x="1115" y="210" width="90" height="50" as="geometry" />
        </mxCell>
        <mxCell id="kJskTAHnGRdRSJ4M2GRQ-61" value="Адрес" style="ellipse;whiteSpace=wrap;html=1;" parent="1" vertex="1">
          <mxGeometry x="1210" y="240" width="80" height="50" as="geometry" />
        </mxCell>
        <mxCell id="kJskTAHnGRdRSJ4M2GRQ-62" value="Реквизиты" style="ellipse;whiteSpace=wrap;html=1;" parent="1" vertex="1">
          <mxGeometry x="1220" y="300" width="90" height="50" as="geometry" />
        </mxCell>
        <mxCell id="kJskTAHnGRdRSJ4M2GRQ-63" value="Код Поставки" style="ellipse;whiteSpace=wrap;html=1;" parent="1" vertex="1">
          <mxGeometry x="1190" y="360" width="100" height="60" as="geometry" />
        </mxCell>
        <mxCell id="kJskTAHnGRdRSJ4M2GRQ-64" value="" style="endArrow=none;html=1;rounded=0;exitX=1;exitY=1;exitDx=0;exitDy=0;" parent="1" source="kJskTAHnGRdRSJ4M2GRQ-9" target="kJskTAHnGRdRSJ4M2GRQ-10" edge="1">
          <mxGeometry width="50" height="50" relative="1" as="geometry">
            <mxPoint x="1140" y="410" as="sourcePoint" />
            <mxPoint x="1190" y="360" as="targetPoint" />
          </mxGeometry>
        </mxCell>
        <mxCell id="kJskTAHnGRdRSJ4M2GRQ-65" value="" style="endArrow=none;html=1;rounded=0;exitX=1;exitY=0.5;exitDx=0;exitDy=0;entryX=0.5;entryY=1;entryDx=0;entryDy=0;" parent="1" source="kJskTAHnGRdRSJ4M2GRQ-10" target="kJskTAHnGRdRSJ4M2GRQ-5" edge="1">
          <mxGeometry width="50" height="50" relative="1" as="geometry">
            <mxPoint x="1300" y="400" as="sourcePoint" />
            <mxPoint x="1350" y="350" as="targetPoint" />
          </mxGeometry>
        </mxCell>
        <mxCell id="kJskTAHnGRdRSJ4M2GRQ-66" value="" style="endArrow=none;html=1;rounded=0;entryX=0;entryY=0.5;entryDx=0;entryDy=0;exitX=1;exitY=0.5;exitDx=0;exitDy=0;" parent="1" source="kJskTAHnGRdRSJ4M2GRQ-5" target="kJskTAHnGRdRSJ4M2GRQ-62" edge="1">
          <mxGeometry width="50" height="50" relative="1" as="geometry">
            <mxPoint x="1020" y="530" as="sourcePoint" />
            <mxPoint x="1070" y="480" as="targetPoint" />
          </mxGeometry>
        </mxCell>
        <mxCell id="kJskTAHnGRdRSJ4M2GRQ-67" value="" style="endArrow=none;html=1;rounded=0;entryX=0;entryY=0.5;entryDx=0;entryDy=0;exitX=0.5;exitY=1;exitDx=0;exitDy=0;" parent="1" source="kJskTAHnGRdRSJ4M2GRQ-5" target="kJskTAHnGRdRSJ4M2GRQ-63" edge="1">
          <mxGeometry width="50" height="50" relative="1" as="geometry">
            <mxPoint x="1110" y="530" as="sourcePoint" />
            <mxPoint x="1160" y="480" as="targetPoint" />
          </mxGeometry>
        </mxCell>
        <mxCell id="kJskTAHnGRdRSJ4M2GRQ-68" value="" style="endArrow=none;html=1;rounded=0;entryX=0.004;entryY=0.693;entryDx=0;entryDy=0;entryPerimeter=0;exitX=1;exitY=0.25;exitDx=0;exitDy=0;" parent="1" source="kJskTAHnGRdRSJ4M2GRQ-5" target="kJskTAHnGRdRSJ4M2GRQ-61" edge="1">
          <mxGeometry width="50" height="50" relative="1" as="geometry">
            <mxPoint x="1080" y="460" as="sourcePoint" />
            <mxPoint x="1130" y="410" as="targetPoint" />
          </mxGeometry>
        </mxCell>
        <mxCell id="kJskTAHnGRdRSJ4M2GRQ-69" value="" style="endArrow=none;html=1;rounded=0;entryX=0.5;entryY=1;entryDx=0;entryDy=0;exitX=0.5;exitY=0;exitDx=0;exitDy=0;" parent="1" source="kJskTAHnGRdRSJ4M2GRQ-5" target="kJskTAHnGRdRSJ4M2GRQ-60" edge="1">
          <mxGeometry width="50" height="50" relative="1" as="geometry">
            <mxPoint x="1040" y="430" as="sourcePoint" />
            <mxPoint x="1090" y="380" as="targetPoint" />
          </mxGeometry>
        </mxCell>
        <mxCell id="kJskTAHnGRdRSJ4M2GRQ-70" value="&lt;u&gt;Код менеджера&lt;/u&gt;" style="ellipse;whiteSpace=wrap;html=1;" parent="1" vertex="1">
          <mxGeometry x="660" y="500" width="110" height="70" as="geometry" />
        </mxCell>
        <mxCell id="kJskTAHnGRdRSJ4M2GRQ-71" value="Должность" style="ellipse;whiteSpace=wrap;html=1;" parent="1" vertex="1">
          <mxGeometry x="960" y="595" width="140" height="50" as="geometry" />
        </mxCell>
        <mxCell id="kJskTAHnGRdRSJ4M2GRQ-72" value="Паспортные данные" style="ellipse;whiteSpace=wrap;html=1;" parent="1" vertex="1">
          <mxGeometry x="665" y="580" width="135" height="60" as="geometry" />
        </mxCell>
        <mxCell id="kJskTAHnGRdRSJ4M2GRQ-73" value="Табельный номер" style="ellipse;whiteSpace=wrap;html=1;" parent="1" vertex="1">
          <mxGeometry x="970" y="490" width="140" height="50" as="geometry" />
        </mxCell>
        <mxCell id="kJskTAHnGRdRSJ4M2GRQ-74" value="" style="endArrow=none;html=1;rounded=0;entryX=1;entryY=0;entryDx=0;entryDy=0;exitX=0.5;exitY=1;exitDx=0;exitDy=0;" parent="1" source="kJskTAHnGRdRSJ4M2GRQ-10" target="kJskTAHnGRdRSJ4M2GRQ-72" edge="1">
          <mxGeometry width="50" height="50" relative="1" as="geometry">
            <mxPoint x="750" y="745" as="sourcePoint" />
            <mxPoint x="800" y="695" as="targetPoint" />
          </mxGeometry>
        </mxCell>
        <mxCell id="kJskTAHnGRdRSJ4M2GRQ-75" value="" style="endArrow=none;html=1;rounded=0;entryX=0;entryY=0;entryDx=0;entryDy=0;exitX=1;exitY=1;exitDx=0;exitDy=0;" parent="1" source="kJskTAHnGRdRSJ4M2GRQ-10" target="kJskTAHnGRdRSJ4M2GRQ-71" edge="1">
          <mxGeometry width="50" height="50" relative="1" as="geometry">
            <mxPoint x="840" y="735" as="sourcePoint" />
            <mxPoint x="890" y="685" as="targetPoint" />
          </mxGeometry>
        </mxCell>
        <mxCell id="kJskTAHnGRdRSJ4M2GRQ-76" value="" style="endArrow=none;html=1;rounded=0;entryX=1;entryY=0.5;entryDx=0;entryDy=0;exitX=0;exitY=0.25;exitDx=0;exitDy=0;" parent="1" source="kJskTAHnGRdRSJ4M2GRQ-10" target="kJskTAHnGRdRSJ4M2GRQ-70" edge="1">
          <mxGeometry width="50" height="50" relative="1" as="geometry">
            <mxPoint x="640" y="695" as="sourcePoint" />
            <mxPoint x="690" y="645" as="targetPoint" />
          </mxGeometry>
        </mxCell>
        <mxCell id="kJskTAHnGRdRSJ4M2GRQ-77" value="" style="endArrow=none;html=1;rounded=0;entryX=0;entryY=0.5;entryDx=0;entryDy=0;exitX=1;exitY=0.75;exitDx=0;exitDy=0;" parent="1" source="kJskTAHnGRdRSJ4M2GRQ-10" target="kJskTAHnGRdRSJ4M2GRQ-73" edge="1">
          <mxGeometry width="50" height="50" relative="1" as="geometry">
            <mxPoint x="970" y="725" as="sourcePoint" />
            <mxPoint x="1020" y="675" as="targetPoint" />
          </mxGeometry>
        </mxCell>
        <mxCell id="kJskTAHnGRdRSJ4M2GRQ-79" value="Код менеджера" style="ellipse;whiteSpace=wrap;html=1;" parent="1" vertex="1">
          <mxGeometry x="667.5" y="280" width="130" height="50" as="geometry" />
        </mxCell>
        <mxCell id="kJskTAHnGRdRSJ4M2GRQ-80" value="" style="endArrow=none;html=1;rounded=0;entryX=0.5;entryY=1;entryDx=0;entryDy=0;exitX=1;exitY=0;exitDx=0;exitDy=0;" parent="1" source="kJskTAHnGRdRSJ4M2GRQ-9" target="kJskTAHnGRdRSJ4M2GRQ-79" edge="1">
          <mxGeometry width="50" height="50" relative="1" as="geometry">
            <mxPoint x="979.9999999999995" y="280" as="sourcePoint" />
            <mxPoint x="1040" y="450" as="targetPoint" />
          </mxGeometry>
        </mxCell>
        <mxCell id="kJskTAHnGRdRSJ4M2GRQ-82" value="Номер договора заказа" style="ellipse;whiteSpace=wrap;html=1;" parent="1" vertex="1">
          <mxGeometry x="390" y="720" width="110" height="50" as="geometry" />
        </mxCell>
        <mxCell id="kJskTAHnGRdRSJ4M2GRQ-84" value="&lt;u&gt;Код Заказа&lt;/u&gt;" style="ellipse;whiteSpace=wrap;html=1;" parent="1" vertex="1">
          <mxGeometry x="490" y="845" width="110" height="50" as="geometry" />
        </mxCell>
        <mxCell id="kJskTAHnGRdRSJ4M2GRQ-85" value="Код покупателя" style="ellipse;whiteSpace=wrap;html=1;" parent="1" vertex="1">
          <mxGeometry x="600" y="650" width="120" height="50" as="geometry" />
        </mxCell>
        <mxCell id="kJskTAHnGRdRSJ4M2GRQ-86" value="Дата заказа" style="ellipse;whiteSpace=wrap;html=1;" parent="1" vertex="1">
          <mxGeometry x="410" y="670" width="120" height="40" as="geometry" />
        </mxCell>
        <mxCell id="kJskTAHnGRdRSJ4M2GRQ-88" value="" style="endArrow=none;html=1;rounded=0;entryX=0.5;entryY=0;entryDx=0;entryDy=0;exitX=0.25;exitY=1;exitDx=0;exitDy=0;" parent="1" source="kJskTAHnGRdRSJ4M2GRQ-7" target="kJskTAHnGRdRSJ4M2GRQ-84" edge="1">
          <mxGeometry width="50" height="50" relative="1" as="geometry">
            <mxPoint x="180" y="1025" as="sourcePoint" />
            <mxPoint x="230" y="975" as="targetPoint" />
          </mxGeometry>
        </mxCell>
        <mxCell id="kJskTAHnGRdRSJ4M2GRQ-90" value="" style="endArrow=none;html=1;rounded=0;entryX=0.5;entryY=1;entryDx=0;entryDy=0;exitX=0.75;exitY=0;exitDx=0;exitDy=0;" parent="1" source="kJskTAHnGRdRSJ4M2GRQ-7" target="kJskTAHnGRdRSJ4M2GRQ-85" edge="1">
          <mxGeometry width="50" height="50" relative="1" as="geometry">
            <mxPoint x="-60" y="865" as="sourcePoint" />
            <mxPoint x="-10" y="815" as="targetPoint" />
          </mxGeometry>
        </mxCell>
        <mxCell id="kJskTAHnGRdRSJ4M2GRQ-92" value="Код менеджера" style="ellipse;whiteSpace=wrap;html=1;" parent="1" vertex="1">
          <mxGeometry x="480" y="630" width="130" height="50" as="geometry" />
        </mxCell>
        <mxCell id="kJskTAHnGRdRSJ4M2GRQ-94" value="Статус заказа" style="ellipse;whiteSpace=wrap;html=1;" parent="1" vertex="1">
          <mxGeometry x="400" y="800" width="120" height="45" as="geometry" />
        </mxCell>
        <mxCell id="kJskTAHnGRdRSJ4M2GRQ-95" value="Статус поставки" style="ellipse;whiteSpace=wrap;html=1;" parent="1" vertex="1">
          <mxGeometry x="790" y="435" width="90" height="45" as="geometry" />
        </mxCell>
        <mxCell id="kJskTAHnGRdRSJ4M2GRQ-96" value="" style="endArrow=none;html=1;rounded=0;entryX=1;entryY=0.75;entryDx=0;entryDy=0;exitX=0.5;exitY=0;exitDx=0;exitDy=0;" parent="1" source="kJskTAHnGRdRSJ4M2GRQ-126" target="kJskTAHnGRdRSJ4M2GRQ-9" edge="1">
          <mxGeometry width="50" height="50" relative="1" as="geometry">
            <mxPoint x="840" y="550" as="sourcePoint" />
            <mxPoint x="890" y="500" as="targetPoint" />
          </mxGeometry>
        </mxCell>
        <mxCell id="kJskTAHnGRdRSJ4M2GRQ-97" value="Адрес" style="ellipse;whiteSpace=wrap;html=1;" parent="1" vertex="1">
          <mxGeometry x="1030" y="735" width="100" height="45" as="geometry" />
        </mxCell>
        <mxCell id="kJskTAHnGRdRSJ4M2GRQ-98" value="&lt;u&gt;Код покупателя&lt;/u&gt;" style="ellipse;whiteSpace=wrap;html=1;" parent="1" vertex="1">
          <mxGeometry x="990" y="805" width="140" height="55" as="geometry" />
        </mxCell>
        <mxCell id="kJskTAHnGRdRSJ4M2GRQ-99" value="Название" style="ellipse;whiteSpace=wrap;html=1;" parent="1" vertex="1">
          <mxGeometry x="890" y="855" width="130" height="40" as="geometry" />
        </mxCell>
        <mxCell id="kJskTAHnGRdRSJ4M2GRQ-100" value="Реквизиты" style="ellipse;whiteSpace=wrap;html=1;" parent="1" vertex="1">
          <mxGeometry x="940" y="680" width="90" height="60" as="geometry" />
        </mxCell>
        <mxCell id="kJskTAHnGRdRSJ4M2GRQ-101" value="" style="endArrow=none;html=1;rounded=0;entryX=0;entryY=0.5;entryDx=0;entryDy=0;exitX=1;exitY=0.5;exitDx=0;exitDy=0;" parent="1" source="kJskTAHnGRdRSJ4M2GRQ-4" target="kJskTAHnGRdRSJ4M2GRQ-97" edge="1">
          <mxGeometry width="50" height="50" relative="1" as="geometry">
            <mxPoint x="820" y="625" as="sourcePoint" />
            <mxPoint x="870" y="575" as="targetPoint" />
          </mxGeometry>
        </mxCell>
        <mxCell id="kJskTAHnGRdRSJ4M2GRQ-102" value="" style="endArrow=none;html=1;rounded=0;entryX=0;entryY=1;entryDx=0;entryDy=0;exitX=0.5;exitY=0;exitDx=0;exitDy=0;" parent="1" source="kJskTAHnGRdRSJ4M2GRQ-4" target="kJskTAHnGRdRSJ4M2GRQ-100" edge="1">
          <mxGeometry width="50" height="50" relative="1" as="geometry">
            <mxPoint x="880" y="645" as="sourcePoint" />
            <mxPoint x="930" y="595" as="targetPoint" />
          </mxGeometry>
        </mxCell>
        <mxCell id="kJskTAHnGRdRSJ4M2GRQ-103" value="" style="endArrow=none;html=1;rounded=0;entryX=0.5;entryY=0;entryDx=0;entryDy=0;exitX=1;exitY=1;exitDx=0;exitDy=0;" parent="1" source="kJskTAHnGRdRSJ4M2GRQ-4" target="kJskTAHnGRdRSJ4M2GRQ-98" edge="1">
          <mxGeometry width="50" height="50" relative="1" as="geometry">
            <mxPoint x="730" y="625" as="sourcePoint" />
            <mxPoint x="780" y="575" as="targetPoint" />
          </mxGeometry>
        </mxCell>
        <mxCell id="kJskTAHnGRdRSJ4M2GRQ-104" value="" style="endArrow=none;html=1;rounded=0;entryX=0.5;entryY=1;entryDx=0;entryDy=0;exitX=0.5;exitY=0;exitDx=0;exitDy=0;" parent="1" source="kJskTAHnGRdRSJ4M2GRQ-99" target="kJskTAHnGRdRSJ4M2GRQ-4" edge="1">
          <mxGeometry width="50" height="50" relative="1" as="geometry">
            <mxPoint x="820" y="975" as="sourcePoint" />
            <mxPoint x="870" y="925" as="targetPoint" />
          </mxGeometry>
        </mxCell>
        <mxCell id="kJskTAHnGRdRSJ4M2GRQ-106" value="" style="endArrow=none;html=1;rounded=0;entryX=1;entryY=0.5;entryDx=0;entryDy=0;exitX=0;exitY=0.25;exitDx=0;exitDy=0;" parent="1" source="kJskTAHnGRdRSJ4M2GRQ-7" target="kJskTAHnGRdRSJ4M2GRQ-82" edge="1">
          <mxGeometry width="50" height="50" relative="1" as="geometry">
            <mxPoint x="240" y="785" as="sourcePoint" />
            <mxPoint x="290" y="735" as="targetPoint" />
          </mxGeometry>
        </mxCell>
        <mxCell id="kJskTAHnGRdRSJ4M2GRQ-107" value="" style="endArrow=none;html=1;rounded=0;entryX=1;entryY=0.5;entryDx=0;entryDy=0;exitX=0;exitY=1;exitDx=0;exitDy=0;" parent="1" source="kJskTAHnGRdRSJ4M2GRQ-7" target="kJskTAHnGRdRSJ4M2GRQ-94" edge="1">
          <mxGeometry width="50" height="50" relative="1" as="geometry">
            <mxPoint x="310" y="805" as="sourcePoint" />
            <mxPoint x="360" y="755" as="targetPoint" />
          </mxGeometry>
        </mxCell>
        <mxCell id="kJskTAHnGRdRSJ4M2GRQ-108" value="" style="endArrow=none;html=1;rounded=0;entryX=1;entryY=0.5;entryDx=0;entryDy=0;exitX=0;exitY=0.25;exitDx=0;exitDy=0;" parent="1" source="kJskTAHnGRdRSJ4M2GRQ-7" target="kJskTAHnGRdRSJ4M2GRQ-86" edge="1">
          <mxGeometry width="50" height="50" relative="1" as="geometry">
            <mxPoint x="510" y="775" as="sourcePoint" />
            <mxPoint x="560" y="725" as="targetPoint" />
          </mxGeometry>
        </mxCell>
        <mxCell id="kJskTAHnGRdRSJ4M2GRQ-109" value="" style="endArrow=none;html=1;rounded=0;entryX=1;entryY=1;entryDx=0;entryDy=0;exitX=0;exitY=0.25;exitDx=0;exitDy=0;" parent="1" source="kJskTAHnGRdRSJ4M2GRQ-7" target="kJskTAHnGRdRSJ4M2GRQ-92" edge="1">
          <mxGeometry width="50" height="50" relative="1" as="geometry">
            <mxPoint x="530" y="785" as="sourcePoint" />
            <mxPoint x="580" y="735" as="targetPoint" />
          </mxGeometry>
        </mxCell>
        <mxCell id="kJskTAHnGRdRSJ4M2GRQ-110" value="" style="endArrow=none;html=1;rounded=0;entryX=1;entryY=0.5;entryDx=0;entryDy=0;exitX=0;exitY=0.5;exitDx=0;exitDy=0;" parent="1" source="kJskTAHnGRdRSJ4M2GRQ-4" target="kJskTAHnGRdRSJ4M2GRQ-7" edge="1">
          <mxGeometry width="50" height="50" relative="1" as="geometry">
            <mxPoint x="440" y="765" as="sourcePoint" />
            <mxPoint x="490" y="715" as="targetPoint" />
          </mxGeometry>
        </mxCell>
        <mxCell id="kJskTAHnGRdRSJ4M2GRQ-111" value="" style="endArrow=none;html=1;rounded=0;entryX=1;entryY=0;entryDx=0;entryDy=0;exitX=0.75;exitY=1;exitDx=0;exitDy=0;" parent="1" source="kJskTAHnGRdRSJ4M2GRQ-10" target="kJskTAHnGRdRSJ4M2GRQ-7" edge="1">
          <mxGeometry width="50" height="50" relative="1" as="geometry">
            <mxPoint x="1240.0000000000005" y="615" as="sourcePoint" />
            <mxPoint x="640" y="965" as="targetPoint" />
          </mxGeometry>
        </mxCell>
        <mxCell id="kJskTAHnGRdRSJ4M2GRQ-112" value="Код товара" style="ellipse;whiteSpace=wrap;html=1;" parent="1" vertex="1">
          <mxGeometry x="260" y="870" width="120" height="52.5" as="geometry" />
        </mxCell>
        <mxCell id="kJskTAHnGRdRSJ4M2GRQ-114" value="Цена товара" style="ellipse;whiteSpace=wrap;html=1;" parent="1" vertex="1">
          <mxGeometry x="150" y="895" width="120" height="50" as="geometry" />
        </mxCell>
        <mxCell id="kJskTAHnGRdRSJ4M2GRQ-115" value="Количество товара" style="ellipse;whiteSpace=wrap;html=1;" parent="1" vertex="1">
          <mxGeometry x="5" y="895" width="135" height="60" as="geometry" />
        </mxCell>
        <mxCell id="kJskTAHnGRdRSJ4M2GRQ-117" value="" style="endArrow=none;html=1;rounded=0;entryX=0.5;entryY=0;entryDx=0;entryDy=0;exitX=0.75;exitY=1;exitDx=0;exitDy=0;" parent="1" source="INEstCtHJYuw2tECv8UU-13" target="kJskTAHnGRdRSJ4M2GRQ-114" edge="1">
          <mxGeometry width="50" height="50" relative="1" as="geometry">
            <mxPoint x="950" y="615" as="sourcePoint" />
            <mxPoint x="1000" y="565" as="targetPoint" />
          </mxGeometry>
        </mxCell>
        <mxCell id="kJskTAHnGRdRSJ4M2GRQ-118" value="" style="endArrow=none;html=1;rounded=0;entryX=0.5;entryY=0;entryDx=0;entryDy=0;exitX=0.25;exitY=1;exitDx=0;exitDy=0;" parent="1" source="INEstCtHJYuw2tECv8UU-13" target="kJskTAHnGRdRSJ4M2GRQ-115" edge="1">
          <mxGeometry width="50" height="50" relative="1" as="geometry">
            <mxPoint x="950" y="715" as="sourcePoint" />
            <mxPoint x="1000" y="665" as="targetPoint" />
          </mxGeometry>
        </mxCell>
        <mxCell id="kJskTAHnGRdRSJ4M2GRQ-119" value="" style="endArrow=none;html=1;rounded=0;entryX=0;entryY=0;entryDx=0;entryDy=0;exitX=1;exitY=0.75;exitDx=0;exitDy=0;" parent="1" source="INEstCtHJYuw2tECv8UU-13" target="kJskTAHnGRdRSJ4M2GRQ-112" edge="1">
          <mxGeometry width="50" height="50" relative="1" as="geometry">
            <mxPoint x="1010" y="535" as="sourcePoint" />
            <mxPoint x="1060" y="485" as="targetPoint" />
          </mxGeometry>
        </mxCell>
        <mxCell id="kJskTAHnGRdRSJ4M2GRQ-122" value="М, 0" style="text;html=1;strokeColor=none;fillColor=none;align=center;verticalAlign=middle;whiteSpace=wrap;rounded=0;" parent="1" vertex="1">
          <mxGeometry x="702.5" y="350" width="60" height="30" as="geometry" />
        </mxCell>
        <mxCell id="kJskTAHnGRdRSJ4M2GRQ-123" value="1, |" style="text;html=1;strokeColor=none;fillColor=none;align=center;verticalAlign=middle;whiteSpace=wrap;rounded=0;" parent="1" vertex="1">
          <mxGeometry x="370" y="212.5" width="50" height="47.5" as="geometry" />
        </mxCell>
        <mxCell id="kJskTAHnGRdRSJ4M2GRQ-125" value="1, |" style="text;html=1;strokeColor=none;fillColor=none;align=center;verticalAlign=middle;whiteSpace=wrap;rounded=0;" parent="1" vertex="1">
          <mxGeometry x="1090" y="345" width="50" height="47.5" as="geometry" />
        </mxCell>
        <mxCell id="kJskTAHnGRdRSJ4M2GRQ-126" value="1, |" style="text;html=1;strokeColor=none;fillColor=none;align=center;verticalAlign=middle;whiteSpace=wrap;rounded=0;" parent="1" vertex="1">
          <mxGeometry x="770" y="450" width="50" height="70" as="geometry" />
        </mxCell>
        <mxCell id="kJskTAHnGRdRSJ4M2GRQ-128" value="1, |" style="text;html=1;strokeColor=none;fillColor=none;align=center;verticalAlign=middle;whiteSpace=wrap;rounded=0;" parent="1" vertex="1">
          <mxGeometry x="850" y="551.25" width="50" height="47.5" as="geometry" />
        </mxCell>
        <mxCell id="kJskTAHnGRdRSJ4M2GRQ-130" value="1, |" style="text;html=1;strokeColor=none;fillColor=none;align=center;verticalAlign=middle;whiteSpace=wrap;rounded=0;" parent="1" vertex="1">
          <mxGeometry x="550" y="732.5" width="50" height="47.5" as="geometry" />
        </mxCell>
        <mxCell id="kJskTAHnGRdRSJ4M2GRQ-131" value="1, |" style="text;html=1;strokeColor=none;fillColor=none;align=center;verticalAlign=middle;whiteSpace=wrap;rounded=0;" parent="1" vertex="1">
          <mxGeometry x="1055" y="150" width="50" height="50" as="geometry" />
        </mxCell>
        <mxCell id="kJskTAHnGRdRSJ4M2GRQ-133" value="Код заказа" style="ellipse;whiteSpace=wrap;html=1;" parent="1" vertex="1">
          <mxGeometry x="1090" y="405" width="120" height="45" as="geometry" />
        </mxCell>
        <mxCell id="kJskTAHnGRdRSJ4M2GRQ-134" value="" style="endArrow=none;html=1;rounded=0;entryX=0.75;entryY=0;entryDx=0;entryDy=0;exitX=0.5;exitY=0;exitDx=0;exitDy=0;" parent="1" source="kJskTAHnGRdRSJ4M2GRQ-133" target="kJskTAHnGRdRSJ4M2GRQ-125" edge="1">
          <mxGeometry width="50" height="50" relative="1" as="geometry">
            <mxPoint x="1110" y="430" as="sourcePoint" />
            <mxPoint x="1160" y="380" as="targetPoint" />
          </mxGeometry>
        </mxCell>
        <mxCell id="kJskTAHnGRdRSJ4M2GRQ-135" value="М, |" style="text;html=1;strokeColor=none;fillColor=none;align=center;verticalAlign=middle;whiteSpace=wrap;rounded=0;" parent="1" vertex="1">
          <mxGeometry x="660" y="445" width="60" height="30" as="geometry" />
        </mxCell>
        <mxCell id="kJskTAHnGRdRSJ4M2GRQ-136" value="М, |" style="text;html=1;strokeColor=none;fillColor=none;align=center;verticalAlign=middle;whiteSpace=wrap;rounded=0;" parent="1" vertex="1">
          <mxGeometry x="560" y="245" width="60" height="30" as="geometry" />
        </mxCell>
        <mxCell id="kJskTAHnGRdRSJ4M2GRQ-137" value="М, |" style="text;html=1;strokeColor=none;fillColor=none;align=center;verticalAlign=middle;whiteSpace=wrap;rounded=0;" parent="1" vertex="1">
          <mxGeometry x="470" y="200" width="60" height="30" as="geometry" />
        </mxCell>
        <mxCell id="kJskTAHnGRdRSJ4M2GRQ-139" value="М, |" style="text;html=1;strokeColor=none;fillColor=none;align=center;verticalAlign=middle;whiteSpace=wrap;rounded=0;" parent="1" vertex="1">
          <mxGeometry x="720" y="710" width="60" height="30" as="geometry" />
        </mxCell>
        <mxCell id="kJskTAHnGRdRSJ4M2GRQ-142" value="М, |" style="text;html=1;strokeColor=none;fillColor=none;align=center;verticalAlign=middle;whiteSpace=wrap;rounded=0;" parent="1" vertex="1">
          <mxGeometry x="900" y="472.5" width="60" height="30" as="geometry" />
        </mxCell>
        <mxCell id="INEstCtHJYuw2tECv8UU-1" value="М, 0" style="text;html=1;strokeColor=none;fillColor=none;align=center;verticalAlign=middle;whiteSpace=wrap;rounded=0;" parent="1" vertex="1">
          <mxGeometry x="720" y="742.5" width="60" height="30" as="geometry" />
        </mxCell>
        <mxCell id="INEstCtHJYuw2tECv8UU-2" value="1, |" style="text;html=1;strokeColor=none;fillColor=none;align=center;verticalAlign=middle;whiteSpace=wrap;rounded=0;" parent="1" vertex="1">
          <mxGeometry x="825" y="742.5" width="50" height="47.5" as="geometry" />
        </mxCell>
        <mxCell id="INEstCtHJYuw2tECv8UU-3" value="Запас товара на базе" style="ellipse;whiteSpace=wrap;html=1;" parent="1" vertex="1">
          <mxGeometry x="925" y="267.5" width="130" height="65" as="geometry" />
        </mxCell>
        <mxCell id="INEstCtHJYuw2tECv8UU-4" value="" style="endArrow=none;html=1;rounded=0;entryX=1;entryY=1;entryDx=0;entryDy=0;exitX=0;exitY=1;exitDx=0;exitDy=0;" parent="1" source="kJskTAHnGRdRSJ4M2GRQ-5" target="INEstCtHJYuw2tECv8UU-3" edge="1">
          <mxGeometry width="50" height="50" relative="1" as="geometry">
            <mxPoint x="770" y="390" as="sourcePoint" />
            <mxPoint x="820" y="340" as="targetPoint" />
          </mxGeometry>
        </mxCell>
        <mxCell id="INEstCtHJYuw2tECv8UU-5" value="Примечание" style="ellipse;whiteSpace=wrap;html=1;" parent="1" vertex="1">
          <mxGeometry x="300" y="470" width="127" height="50" as="geometry" />
        </mxCell>
        <mxCell id="INEstCtHJYuw2tECv8UU-6" value="" style="endArrow=none;html=1;rounded=0;entryX=0;entryY=1;entryDx=0;entryDy=0;exitX=1;exitY=1;exitDx=0;exitDy=0;" parent="1" source="INEstCtHJYuw2tECv8UU-12" target="INEstCtHJYuw2tECv8UU-5" edge="1">
          <mxGeometry width="50" height="50" relative="1" as="geometry">
            <mxPoint x="690" y="240" as="sourcePoint" />
            <mxPoint x="740" y="190" as="targetPoint" />
          </mxGeometry>
        </mxCell>
        <mxCell id="INEstCtHJYuw2tECv8UU-7" value="Номер партии" style="ellipse;whiteSpace=wrap;html=1;" parent="1" vertex="1">
          <mxGeometry x="750" y="175" width="120" height="45" as="geometry" />
        </mxCell>
        <mxCell id="INEstCtHJYuw2tECv8UU-8" value="" style="endArrow=none;html=1;rounded=0;entryX=0;entryY=0.5;entryDx=0;entryDy=0;exitX=1;exitY=0.75;exitDx=0;exitDy=0;" parent="1" source="kJskTAHnGRdRSJ4M2GRQ-2" target="INEstCtHJYuw2tECv8UU-7" edge="1">
          <mxGeometry width="50" height="50" relative="1" as="geometry">
            <mxPoint x="670" y="270" as="sourcePoint" />
            <mxPoint x="720" y="220" as="targetPoint" />
          </mxGeometry>
        </mxCell>
        <mxCell id="INEstCtHJYuw2tECv8UU-9" value="М, 0" style="text;html=1;strokeColor=none;fillColor=none;align=center;verticalAlign=middle;whiteSpace=wrap;rounded=0;" parent="1" vertex="1">
          <mxGeometry x="200" y="422.5" width="60" height="30" as="geometry" />
        </mxCell>
        <mxCell id="INEstCtHJYuw2tECv8UU-12" value="Состав поставки" style="rounded=0;whiteSpace=wrap;html=1;" parent="1" vertex="1">
          <mxGeometry x="130" y="455" width="120" height="60" as="geometry" />
        </mxCell>
        <mxCell id="INEstCtHJYuw2tECv8UU-13" value="Состав заказа" style="rounded=0;whiteSpace=wrap;html=1;" parent="1" vertex="1">
          <mxGeometry x="100" y="790" width="120" height="60" as="geometry" />
        </mxCell>
        <mxCell id="INEstCtHJYuw2tECv8UU-14" value="" style="endArrow=none;html=1;rounded=0;entryX=1;entryY=0.5;entryDx=0;entryDy=0;exitX=0;exitY=0.75;exitDx=0;exitDy=0;" parent="1" source="kJskTAHnGRdRSJ4M2GRQ-9" target="INEstCtHJYuw2tECv8UU-12" edge="1">
          <mxGeometry width="50" height="50" relative="1" as="geometry">
            <mxPoint x="260" y="590" as="sourcePoint" />
            <mxPoint x="310" y="540" as="targetPoint" />
          </mxGeometry>
        </mxCell>
        <mxCell id="INEstCtHJYuw2tECv8UU-15" value="" style="endArrow=none;html=1;rounded=0;exitX=1;exitY=0.5;exitDx=0;exitDy=0;entryX=0;entryY=0.5;entryDx=0;entryDy=0;" parent="1" source="INEstCtHJYuw2tECv8UU-13" target="kJskTAHnGRdRSJ4M2GRQ-7" edge="1">
          <mxGeometry width="50" height="50" relative="1" as="geometry">
            <mxPoint x="390" y="640" as="sourcePoint" />
            <mxPoint x="440" y="590" as="targetPoint" />
          </mxGeometry>
        </mxCell>
        <mxCell id="INEstCtHJYuw2tECv8UU-16" value="" style="endArrow=none;html=1;rounded=0;entryX=0.5;entryY=1;entryDx=0;entryDy=0;exitX=0.5;exitY=0;exitDx=0;exitDy=0;" parent="1" source="INEstCtHJYuw2tECv8UU-13" target="INEstCtHJYuw2tECv8UU-12" edge="1">
          <mxGeometry width="50" height="50" relative="1" as="geometry">
            <mxPoint x="120" y="590" as="sourcePoint" />
            <mxPoint x="170" y="540" as="targetPoint" />
          </mxGeometry>
        </mxCell>
        <mxCell id="INEstCtHJYuw2tECv8UU-17" value="М, 0" style="text;html=1;strokeColor=none;fillColor=none;align=center;verticalAlign=middle;whiteSpace=wrap;rounded=0;" parent="1" vertex="1">
          <mxGeometry x="150" y="760" width="60" height="30" as="geometry" />
        </mxCell>
        <mxCell id="INEstCtHJYuw2tECv8UU-18" value="М, |" style="text;html=1;strokeColor=none;fillColor=none;align=center;verticalAlign=middle;whiteSpace=wrap;rounded=0;" parent="1" vertex="1">
          <mxGeometry x="240" y="460" width="60" height="30" as="geometry" />
        </mxCell>
        <mxCell id="INEstCtHJYuw2tECv8UU-19" value="М, |" style="text;html=1;strokeColor=none;fillColor=none;align=center;verticalAlign=middle;whiteSpace=wrap;rounded=0;" parent="1" vertex="1">
          <mxGeometry x="170" y="520" width="60" height="30" as="geometry" />
        </mxCell>
        <mxCell id="INEstCtHJYuw2tECv8UU-20" value="М, |" style="text;html=1;strokeColor=none;fillColor=none;align=center;verticalAlign=middle;whiteSpace=wrap;rounded=0;" parent="1" vertex="1">
          <mxGeometry x="210" y="790" width="60" height="30" as="geometry" />
        </mxCell>
        <mxCell id="INEstCtHJYuw2tECv8UU-22" value="1, |" style="text;html=1;strokeColor=none;fillColor=none;align=center;verticalAlign=middle;whiteSpace=wrap;rounded=0;" parent="1" vertex="1">
          <mxGeometry x="510" y="405" width="50" height="47.5" as="geometry" />
        </mxCell>
        <mxCell id="INEstCtHJYuw2tECv8UU-23" value="&lt;u&gt;Код состава поставки&lt;/u&gt;" style="ellipse;whiteSpace=wrap;html=1;" parent="1" vertex="1">
          <mxGeometry x="30" y="395" width="120" height="55" as="geometry" />
        </mxCell>
        <mxCell id="INEstCtHJYuw2tECv8UU-27" value="Код поставки" style="ellipse;whiteSpace=wrap;html=1;" parent="1" vertex="1">
          <mxGeometry x="280" y="530" width="140" height="40" as="geometry" />
        </mxCell>
        <mxCell id="INEstCtHJYuw2tECv8UU-28" value="" style="endArrow=none;html=1;rounded=0;entryX=0.901;entryY=1.004;entryDx=0;entryDy=0;exitX=0.5;exitY=0;exitDx=0;exitDy=0;entryPerimeter=0;" parent="1" source="INEstCtHJYuw2tECv8UU-27" target="INEstCtHJYuw2tECv8UU-12" edge="1">
          <mxGeometry width="50" height="50" relative="1" as="geometry">
            <mxPoint x="270" y="700" as="sourcePoint" />
            <mxPoint x="320" y="650" as="targetPoint" />
          </mxGeometry>
        </mxCell>
        <mxCell id="INEstCtHJYuw2tECv8UU-29" value="" style="endArrow=none;html=1;rounded=0;entryX=1;entryY=1;entryDx=0;entryDy=0;exitX=0.25;exitY=0;exitDx=0;exitDy=0;" parent="1" source="INEstCtHJYuw2tECv8UU-12" target="INEstCtHJYuw2tECv8UU-23" edge="1">
          <mxGeometry width="50" height="50" relative="1" as="geometry">
            <mxPoint x="20" y="370" as="sourcePoint" />
            <mxPoint x="70" y="320" as="targetPoint" />
          </mxGeometry>
        </mxCell>
        <mxCell id="INEstCtHJYuw2tECv8UU-30" value="Срок годности" style="ellipse;whiteSpace=wrap;html=1;" parent="1" vertex="1">
          <mxGeometry x="295" y="590" width="110" height="40" as="geometry" />
        </mxCell>
        <mxCell id="INEstCtHJYuw2tECv8UU-31" value="" style="endArrow=none;html=1;rounded=0;entryX=0;entryY=0;entryDx=0;entryDy=0;exitX=0.75;exitY=1;exitDx=0;exitDy=0;" parent="1" source="INEstCtHJYuw2tECv8UU-12" target="INEstCtHJYuw2tECv8UU-30" edge="1">
          <mxGeometry width="50" height="50" relative="1" as="geometry">
            <mxPoint x="240" y="700" as="sourcePoint" />
            <mxPoint x="290" y="650" as="targetPoint" />
          </mxGeometry>
        </mxCell>
        <mxCell id="INEstCtHJYuw2tECv8UU-32" value="Код состава поставки" style="ellipse;whiteSpace=wrap;html=1;" parent="1" vertex="1">
          <mxGeometry x="-90" y="845" width="135" height="50" as="geometry" />
        </mxCell>
        <mxCell id="INEstCtHJYuw2tECv8UU-33" value="Код заказа" style="ellipse;whiteSpace=wrap;html=1;" parent="1" vertex="1">
          <mxGeometry x="-100" y="790" width="140" height="40" as="geometry" />
        </mxCell>
        <mxCell id="INEstCtHJYuw2tECv8UU-34" value="&lt;u&gt;Код состава заказа&lt;/u&gt;" style="ellipse;whiteSpace=wrap;html=1;" parent="1" vertex="1">
          <mxGeometry x="-70" y="730" width="140" height="45" as="geometry" />
        </mxCell>
        <mxCell id="INEstCtHJYuw2tECv8UU-35" value="" style="endArrow=none;html=1;rounded=0;entryX=1;entryY=0.5;entryDx=0;entryDy=0;exitX=0;exitY=0;exitDx=0;exitDy=0;" parent="1" source="INEstCtHJYuw2tECv8UU-13" target="INEstCtHJYuw2tECv8UU-34" edge="1">
          <mxGeometry width="50" height="50" relative="1" as="geometry">
            <mxPoint x="100" y="1050" as="sourcePoint" />
            <mxPoint x="150" y="1000" as="targetPoint" />
          </mxGeometry>
        </mxCell>
        <mxCell id="INEstCtHJYuw2tECv8UU-36" value="" style="endArrow=none;html=1;rounded=0;entryX=1;entryY=0.5;entryDx=0;entryDy=0;exitX=0;exitY=0.5;exitDx=0;exitDy=0;" parent="1" source="INEstCtHJYuw2tECv8UU-13" target="INEstCtHJYuw2tECv8UU-33" edge="1">
          <mxGeometry width="50" height="50" relative="1" as="geometry">
            <mxPoint x="-60" y="970" as="sourcePoint" />
            <mxPoint x="-10" y="920" as="targetPoint" />
          </mxGeometry>
        </mxCell>
        <mxCell id="INEstCtHJYuw2tECv8UU-37" value="" style="endArrow=none;html=1;rounded=0;entryX=1;entryY=0.5;entryDx=0;entryDy=0;exitX=0;exitY=1;exitDx=0;exitDy=0;" parent="1" source="INEstCtHJYuw2tECv8UU-13" target="INEstCtHJYuw2tECv8UU-32" edge="1">
          <mxGeometry width="50" height="50" relative="1" as="geometry">
            <mxPoint x="-70" y="960" as="sourcePoint" />
            <mxPoint x="-20" y="910" as="targetPoint" />
          </mxGeometry>
        </mxCell>
        <mxCell id="INEstCtHJYuw2tECv8UU-38" value="Остаток поставки" style="ellipse;whiteSpace=wrap;html=1;" parent="1" vertex="1">
          <mxGeometry x="190" y="610" width="120" height="50" as="geometry" />
        </mxCell>
        <mxCell id="INEstCtHJYuw2tECv8UU-39" value="" style="endArrow=none;html=1;rounded=0;entryX=0.5;entryY=0;entryDx=0;entryDy=0;exitX=0.75;exitY=1;exitDx=0;exitDy=0;" parent="1" source="INEstCtHJYuw2tECv8UU-12" target="INEstCtHJYuw2tECv8UU-38" edge="1">
          <mxGeometry width="50" height="50" relative="1" as="geometry">
            <mxPoint x="250" y="760" as="sourcePoint" />
            <mxPoint x="300" y="710" as="targetPoint" />
          </mxGeometry>
        </mxCell>
        <mxCell id="INEstCtHJYuw2tECv8UU-70" value="Примечание" style="ellipse;whiteSpace=wrap;html=1;" parent="1" vertex="1">
          <mxGeometry x="20" y="660" width="140" height="60" as="geometry" />
        </mxCell>
        <mxCell id="INEstCtHJYuw2tECv8UU-71" value="" style="endArrow=none;html=1;rounded=0;entryX=0.5;entryY=1;entryDx=0;entryDy=0;exitX=0.25;exitY=0;exitDx=0;exitDy=0;" parent="1" source="INEstCtHJYuw2tECv8UU-13" target="INEstCtHJYuw2tECv8UU-70" edge="1">
          <mxGeometry width="50" height="50" relative="1" as="geometry">
            <mxPoint x="250" y="770" as="sourcePoint" />
            <mxPoint x="300" y="720" as="targetPoint" />
          </mxGeometry>
        </mxCell>
        <mxCell id="yJED67ZWTAfKTa1zA25v-1" value="" style="ellipse;whiteSpace=wrap;html=1;" vertex="1" parent="1">
          <mxGeometry x="920" y="345" width="120" height="80" as="geometry" />
        </mxCell>
      </root>
    </mxGraphModel>
  </diagram>
</mxfile>
